<svg xmlns="http://www.w3.org/2000/svg" width="400" height="178" viewBox="0 0 400 178">
  <g fill="#003245" transform="translate(0 50)">
    <path d="M55.2916379,36.2156185 C55.2916379,36.2156185 64.3787146,33.9930891 68.0628887,43.2646856 L68.6268141,44.8154803 L74.8258466,61.845197 C76.3796069,66.1144327 79.5657559,69.5915331 83.6833109,71.5115035 C87.8008658,73.4314739 92.5125027,73.6370238 96.7816171,72.0829302 L96.7816171,72.0829302 C105.67104,68.8464645 110.254358,59.0171136 107.01935,50.1271596 L94.6834831,16.2398065 C91.4478629,7.34956044 81.6182551,2.76519474 72.7277125,6 L72.7277125,6 C67.8317493,7.78098709 64.0152347,11.6974944 62.3614375,16.6378715 L55.2916379,36.2156185 Z"/>
    <path d="M75.6219765,70.3683483 L75.5929509,70.3890809 C75.4498963,70.2709053 74.5335176,69.4727021 72.8396683,67.2149274 L72.8396683,67.2149274 C72.0680277,65.9675259 71.4267798,64.6440403 70.9260539,63.2653766 L64.7311679,46.2335867 L64.1879751,44.7429164 C63.0207326,41.8403594 61.0780926,40.3351762 58.2729786,40.1485833 C56.7939278,40.0870436 55.3125622,40.1105794 53.8362129,40.2190739 L50.2287491,50.1271596 C48.6746556,54.3962741 48.8802054,59.107911 50.8001758,63.2254659 C52.7201462,67.3430209 56.1972466,70.5291699 60.4664824,72.0829302 L60.4664824,72.0829302 C65.5074964,73.9210925 71.1190282,73.2862448 75.6219765,70.3683483 L75.6219765,70.3683483 Z"/>
    <rect width="70.592" height="34.391" x="-7.013" y="21.885" rx="17.196" transform="rotate(-70 28.283 39.08)"/>
    <path d="M151.032481 55.9384934L151.032481 42.0352453C151.032481 38.6123013 149.241189 35.5065653 145.712509 35.5065653 142.237733 35.5065653 140.183138 38.6164478 140.183138 42.0352453L140.183138 55.9384934 133.756047 55.9384934 133.756047 29.9232896 139.706289 29.9232896 140.178991 33.0829302C141.549413 30.4519696 144.551486 29.5024188 147.020733 29.5024188 150.130615 29.5024188 153.240498 30.7671044 154.710435 34.3476158 157.026261 30.6613683 160.028334 29.6081548 163.399447 29.6081548 170.771942 29.6081548 174.404285 34.1361437 174.404285 41.9315826L174.404285 55.9384934 167.977194 55.9384934 167.977194 41.9315826C167.977194 38.5086386 166.557015 35.6123013 163.080166 35.6123013 159.603317 35.6123013 157.445059 38.6123013 157.445059 42.0393918L157.445059 55.9426399 151.032481 55.9384934zM180.026952 55.9384934L180.026952 30.8728404 186.767104 30.8728404 186.767104 55.9384934 180.026952 55.9384934zM189.288182 19.1817554L182.390463 19.1817554 180.1783 26.6599862 180.1783 26.9751209 185.392536 26.9751209 189.288182 19.4450587 189.288182 19.1817554zM208.731168 36.8749136C206.888044 35.1375259 204.791983 34.5590878 202.304077 34.5590878 199.250173 34.5590878 197.564616 35.5065653 197.564616 37.138217 197.564616 38.8237733 199.092605 39.7712509 202.409813 39.9827229 207.306842 40.2978576 213.52246 41.4049758 213.52246 48.3026952 213.52246 52.8845888 209.790601 56.8341396 202.357982 56.8341396 198.250864 56.8341396 194.141672 56.1499654 190.351762 52.2004147L193.511403 47.6185211C195.354527 49.6710435 199.567381 51.1990325 202.463718 51.2508639 204.88528 51.3047685 207.149274 50.0400829 207.149274 48.1409813 207.149274 46.349689 205.67519 45.6136835 201.988943 45.4022115 197.091914 45.0331721 191.245335 43.243953 191.245335 37.3455425 191.245335 31.333103 197.4651 29.2349689 202.200415 29.2349689 206.253628 29.2349689 209.309606 30.0248791 212.309606 32.6579129L208.731168 36.8749136zM226.204561 22.6565308L226.204561 30.0290256 233.365584 30.0290256 233.365584 35.5583967 226.150657 35.5583967 226.150657 46.7747063C226.150657 49.2501728 227.521078 50.4609537 229.521769 50.4609537 230.603988 50.4303816 231.666021 50.1606252 232.631652 49.6710435L234.420871 55.1485833C232.735072 55.8531562 230.929908 56.2282644 229.102972 56.2536282 223.467865 56.4609537 219.773324 53.2536282 219.773324 46.7747063L219.773324 35.5583967 214.934347 35.5583967 214.934347 30.0290256 219.779544 30.0290256 219.779544 23.3407049 226.204561 22.6565308zM271.275052 52.6212854C268.272979 55.569454 265.113338 56.7284036 261.269523 56.7284036 253.739461 56.7284036 247.472011 52.2004147 247.472011 42.9847961 247.472011 33.7691776 253.739461 29.2391154 261.269523 29.2391154 264.955771 29.2391154 267.800276 30.292329 270.642709 33.0829302L266.589496 37.349689C265.161998 36.0488691 263.306417 35.3177039 261.375259 35.2950933 257.056669 35.2950933 253.897028 38.4547339 253.897028 42.9847961 253.897028 47.9336558 257.268141 50.5666897 261.269523 50.5666897 263.324119 50.5666897 265.376641 49.9882516 266.956462 48.4084312L271.275052 52.6212854zM293.728404 29.9771942L299.890117 29.9771942 299.890117 55.9384934 293.83414 55.9384934 293.519005 52.14651C292.044921 55.2004147 287.989634 56.6765722 285.093296 56.7284036 277.405667 56.780235 271.716655 52.040774 271.716655 42.9308915 271.716655 33.9785764 277.66897 29.29302 285.250864 29.3448514 288.725639 29.3448514 292.044921 30.9785764 293.519005 33.5577056L293.728404 29.9771942zM278.141672 42.9308915C278.141672 47.8818245 281.564616 50.8299931 285.831375 50.8299931 295.940567 50.8299931 295.940567 35.0856945 285.831375 35.0856945 281.564616 35.0856945 278.141672 37.9820318 278.141672 42.9308915z"/>
    <polygon points="237.305 29.871 237.305 55.938 243.732 55.938 243.732 29.871"/>
    <path d="M244.347616,22.642018 C244.347616,27.8417415 236.469247,27.8417415 236.469247,22.642018 C236.469247,17.4422944 244.347616,17.4402211 244.347616,22.642018 Z"/>
  </g>
</svg>
