<svg xmlns="http://www.w3.org/2000/svg" xmlns:xlink="http://www.w3.org/1999/xlink" width="64" height="64" viewBox="0 0 64 64">
  <defs>
    <polygon id="android-a" points=".08 .064 19.981 .064 19.981 57.47 .08 57.47"/>
  </defs>
  <g fill="none" fill-rule="evenodd" transform="translate(0 3)">
    <path fill="#003245" d="M39.4515388,44.0474355 C39.4515388,45.075416 38.6180788,45.908876 37.5900983,45.908876 L10.2199421,45.908876 C9.19196161,45.908876 8.35757089,45.075416 8.35757089,44.0474355 L8.35757089,19.6360391 C8.35757089,18.6080585 9.19196161,17.7745985 10.2199421,17.7745985 L37.5900983,17.7745985 C38.6180788,17.7745985 39.4515388,18.6080585 39.4515388,19.6360391 L39.4515388,44.0474355"/>
    <polygon fill="#003245" points="8.329 30.598 39.481 30.598 39.481 17.775 8.329 17.775"/>
    <path fill="#003245" d="M47.7684551 34.916139C47.7684551 36.745935 46.284887 38.2290378 44.455091 38.2290378 42.6252949 38.2290378 41.1421922 36.745935 41.1421922 34.916139L41.1421922 20.0278723C41.1421922 18.1980762 42.6252949 16.7145081 44.455091 16.7145081 46.284887 16.7145081 47.7684551 18.1980762 47.7684551 20.0278723L47.7684551 34.916139M6.66784825 34.916139C6.66784825 36.745935 5.18474551 38.2290378 3.35448411 38.2290378 1.52515343 38.2290378.0415853293 36.745935.0415853293 34.916139L.0415853293 20.0278723C.0415853293 18.1980762 1.52515343 16.7145081 3.35448411 16.7145081 5.18474551 16.7145081 6.66784825 18.1980762 6.66784825 20.0278723L6.66784825 34.916139M8.45762332 15.9401489C8.45762332 15.9401489 8.80152446 2.75603098 23.9052529 2.80244409 38.8661158 2.84863765 39.3524171 15.9401489 39.3524171 15.9401489L8.45762332 15.9401489"/>
    <path fill="#FFF" d="M18.9845349 9.21011065C18.9845349 10.2371605 18.1515402 11.0696897 17.1249558 11.0696897 16.097906 11.0696897 15.2653767 10.2371605 15.2653767 9.21011065 15.2653767 8.18306084 16.097906 7.35053156 17.1249558 7.35053156 18.1515402 7.35053156 18.9845349 8.18306084 18.9845349 9.21011065M32.5446638 9.21011065C32.5446638 10.2371605 31.7112038 11.0696897 30.6850847 11.0696897 29.6580349 11.0696897 28.8255056 10.2371605 28.8255056 9.21011065 28.8255056 8.18306084 29.6580349 7.35053156 30.6850847 7.35053156 31.7112038 7.35053156 32.5446638 8.18306084 32.5446638 9.21011065"/>
    <path fill="#003245" d="M16.613525,4.57512374 C16.6679721,4.65237352 16.8364325,4.62770943 16.9904667,4.5183498 C17.1421741,4.41085161 17.222216,4.25960957 17.1677689,4.18235978 L14.2820707,0.109527909 C14.2266929,0.0313474064 14.0573018,0.0569422137 13.9055944,0.164905764 C13.7520255,0.273800035 13.672449,0.424111358 13.7273615,0.50229186 L16.613525,4.57512374"/>
    <g transform="translate(14.118)">
      <mask id="android-b" fill="#fff">
        <use xlink:href="#android-a"/>
      </mask>
      <path fill="#003245" d="M17.0776698 4.57512374C17.0232227 4.65237352 16.8552276 4.62770943 16.7007281 4.5183498 16.5490207 4.41085161 16.4689787 4.25960957 16.5234259 4.18235978L19.409124.109527909C19.4645019.0313474064 19.633893.0569422137 19.7860658.164905764 19.9396346.273800035 20.0192112.424111358 19.9638333.50229186L17.0776698 4.57512374M19.4938196 54.185306C19.4938196 56.015102 18.0102515 57.4982048 16.1804555 57.4982048 14.3506594 57.4982048 12.8675567 56.015102 12.8675567 54.185306L12.8675567 39.2965739C12.8675567 37.4667779 14.3506594 35.9836751 16.1804555 35.9836751 18.0102515 35.9836751 19.4938196 37.4667779 19.4938196 39.2965739L19.4938196 54.185306M6.70618852 54.185306C6.70618852 56.015102 5.22308578 57.4982048 3.39328974 57.4982048 1.56395906 57.4982048.0803909628 56.015102.0803909628 54.185306L.0803909628 39.2965739C.0803909628 37.4667779 1.56395906 35.9836751 3.39328974 35.9836751 5.22308578 35.9836751 6.70618852 37.4667779 6.70618852 39.2965739L6.70618852 54.185306" mask="url(#android-b)"/>
    </g>
  </g>
</svg>
