<svg xmlns="http://www.w3.org/2000/svg" width="308" height="72" viewBox="0 0 308 72">
  <g fill="#003245" transform="translate(-5 -5)">
    <path d="M57.6876088,37.784962 C57.6876088,37.784962 67.1684589,35.466123 71.0122806,45.1394886 L71.6006427,46.7574845 L78.0682999,64.5251555 C79.6893899,68.9793915 83.0136053,72.6071662 87.3095877,74.6103353 C91.60557,76.6135044 96.5213778,76.8279615 100.975487,75.2065238 L100.975487,75.2065238 C110.250119,71.8298113 115.032047,61.5745219 111.656856,52.2993366 L98.786434,16.9435314 C95.4106036,7.66804139 85.1550462,2.88501984 75.8792467,6.26 L75.8792467,6.26 C70.7711251,8.1181632 66.7892282,12.2043858 65.0637664,17.3588459 L57.6876088,37.784962 Z"/>
    <path d="M78.8989288,73.4176434 L78.8686455,73.4392744 C78.7193918,73.3159779 77.7633034,72.4831859 75.9960539,70.1275743 L75.9960539,70.1275743 C75.1909756,68.8261186 74.5219403,67.445282 73.9995162,66.0068763 L67.5361852,48.2370422 L66.969454,46.6817761 C65.751631,43.6534416 63.72481,42.0830339 60.798141,41.8883552 C59.254998,41.8241489 57.7094399,41.8487045 56.1691154,41.9619005 L52.4053283,52.2993366 C50.7838906,56.753446 50.9983477,61.6692538 53.0015168,65.9652361 C55.0046859,70.2612185 58.6324606,73.5854339 63.0866966,75.2065238 L63.0866966,75.2065238 C68.3461546,77.1243399 74.2008528,76.4619821 78.8989288,73.4176434 L78.8989288,73.4176434 Z"/>
    <rect width="73.651" height="35.881" x="-7.317" y="22.833" rx="17.941" transform="rotate(-70 29.509 40.774)"/>
    <path d="M157.577222 58.3624948L157.577222 43.8567726C157.577222 40.285501 155.708307 37.0451831 152.026717 37.0451831 148.401368 37.0451831 146.25774 40.2898272 146.25774 43.8567726L146.25774 58.3624948 139.552142 58.3624948 139.552142 31.2199654 145.760228 31.2199654 146.253414 34.5165238C147.68322 31.7715549 150.815384 30.7808569 153.391631 30.7808569 156.636275 30.7808569 159.880919 32.1003455 161.414554 35.8360124 163.830733 31.9900276 166.962896 30.8911748 170.48009 30.8911748 178.172059 30.8911748 181.961804 35.6153766 181.961804 43.7486178L181.961804 58.3624948 175.256206 58.3624948 175.256206 43.7486178C175.256206 40.1773462 173.774485 37.155501 170.146973 37.155501 166.519461 37.155501 164.267678 40.285501 164.267678 43.8610988L164.267678 58.366821 157.577222 58.3624948zM187.82812 58.3624948L187.82812 32.2106634 194.860346 32.2106634 194.860346 58.3624948 187.82812 58.3624948zM197.49067 20.0129648L190.29405 20.0129648 187.986026 27.8152522 187.986026 28.1440428 193.426213 28.1440428 197.49067 20.287678 197.49067 20.0129648zM217.776185 38.4728265C215.853193 36.660152 213.666303 36.0566482 211.070587 36.0566482 207.884347 36.0566482 206.12575 37.0451831 206.12575 38.7475397 206.12575 40.5061368 207.719952 41.4946717 211.180905 41.7153075 216.290138 42.0440981 222.7751 43.1991914 222.7751 50.395812 222.7751 55.1762543 218.881527 59.2969523 211.126828 59.2969523 206.841735 59.2969523 202.554478 58.5831306 198.600339 54.4624326L201.896897 49.6819903C203.819889 51.8234554 208.215301 53.4176572 211.237146 53.4717346 213.763642 53.5279751 216.125743 52.2084865 216.125743 50.2270905 216.125743 48.3581755 214.587782 47.5902764 210.741797 47.3696406 205.632564 46.9846095 199.532633 45.1178576 199.532633 38.9638493 199.532633 32.6908708 206.021921 30.5018176 210.962433 30.5018176 215.191285 30.5018176 218.379689 31.3259572 221.509689 34.0730891L217.776185 38.4728265zM236.006759 23.6383138L236.006759 31.3302833 243.478093 31.3302833 243.478093 37.0992605 235.950518 37.0992605 235.950518 48.8016102C235.950518 51.3843469 237.380325 52.647595 239.467713 52.647595 240.596828 52.6156982 241.704882 52.3342523 242.712357 51.8234554L244.579109 57.5383552C242.820259 58.2734597 240.936871 58.6648225 239.030767 58.6912854 233.151472 58.907595 229.296835 55.5612854 229.296835 48.8016102L229.296835 37.0992605 224.248169 37.0992605 224.248169 31.3302833 229.303324 31.3302833 229.303324 24.3521355 236.006759 23.6383138zM283.030304 54.9015411C279.898141 57.9774637 276.601583 59.1866344 272.591202 59.1866344 264.734838 59.1866344 258.195798 54.4624326 258.195798 44.8474706 258.195798 35.2325086 264.734838 30.5061437 272.591202 30.5061437 276.437187 30.5061437 279.404955 31.6049965 282.37056 34.5165238L278.141707 38.9681755C276.652351 37.6109868 274.716362 36.8481378 272.70152 36.8245473 268.195798 36.8245473 264.899233 40.1211057 264.899233 44.8474706 264.899233 50.0107809 268.416427 52.7579129 272.591202 52.7579129 274.734831 52.7579129 276.876296 52.1544091 278.524575 50.5061299L283.030304 54.9015411zM306.456634 31.2762059L312.885356 31.2762059 312.885356 58.3624948 306.566952 58.3624948 306.238162 54.4061921C304.7002 57.5924326 300.469185 59.132557 297.447339 59.1866344 289.426579 59.2407118 283.491044 54.2958742 283.491044 44.7912301 283.491044 35.4509813 289.701292 30.5623842 297.611735 30.6164616 301.237084 30.6164616 304.7002 32.3209813 306.238162 35.0118728L306.456634 31.2762059zM290.194478 44.7912301C290.194478 49.9567035 293.76575 53.0326261 298.217402 53.0326261 308.764658 53.0326261 308.764658 36.6060746 298.217402 36.6060746 293.76575 36.6060746 290.194478 39.6279198 290.194478 44.7912301z"/>
    <polygon points="247.588 31.166 247.588 58.362 254.294 58.362 254.294 31.166"/>
    <path d="M254.936012,23.6231721 C254.936012,29.048217 246.716247,29.048217 246.716247,23.6231721 C246.716247,18.1981272 254.936012,18.1959641 254.936012,23.6231721 Z"/>
  </g>
</svg>
