<svg xmlns="http://www.w3.org/2000/svg" width="310" height="72" viewBox="0 0 310 72">
  <g fill="#FFF">
    <path d="M154.684558 53.9444268L154.684558 39.4487224C154.684558 35.8799171 152.816934 32.641837 149.137887 32.641837 145.515041 32.641837 143.372894 35.8842403 143.372894 39.4487224L143.372894 53.9444268 136.671927 53.9444268 136.671927 26.8206423 142.875725 26.8206423 143.36857 30.114924C144.79739 27.3718508 147.92739 26.381837 150.501858 26.381837 153.744261 26.381837 156.986664 27.7004144 158.51924 31.4335014 160.93375 27.5901727 164.06375 26.4920787 167.578515 26.4920787 175.265173 26.4920787 179.0523 31.213018 179.0523 39.3406423L179.0523 53.9444268 172.351333 53.9444268 172.351333 39.3406423C172.351333 35.771837 170.870635 32.7520787 167.245628 32.7520787 163.620622 32.7520787 161.370394 35.8799171 161.370394 39.4530456L161.370394 53.94875 154.684558 53.9444268zM184.914565 53.9444268L184.914565 27.8106561 191.941934 27.8106561 191.941934 53.9444268 184.914565 53.9444268zM194.570442 15.6213812L187.378791 15.6213812 185.072362 23.4182804 185.072362 23.7468439 190.508791 23.7468439 194.570442 15.8959047 194.570442 15.6213812zM214.841948 34.0684945C212.920283 32.2570718 210.734903 31.6539848 208.140981 31.6539848 204.956941 31.6539848 203.199558 32.641837 203.199558 34.343018 203.199558 36.1004006 204.792659 37.0882528 208.251222 37.3087362 213.356927 37.6372997 219.83741 38.7915953 219.83741 45.9832459 219.83741 50.7603867 215.946526 54.878239 208.197182 54.878239 203.915048 54.878239 199.630753 54.1649102 195.679344 50.047058L198.973626 45.2699171C200.89529 47.4099033 205.287666 49.0030041 208.307424 49.0570442 210.832175 49.1132459 213.192645 47.7946685 213.192645 45.8146409 213.192645 43.9470166 211.655746 43.1796478 207.812417 42.9591644 202.706713 42.5743992 196.610994 40.7089365 196.610994 34.5591782 196.610994 28.2905318 203.095801 26.1029903 208.032901 26.1029903 212.258833 26.1029903 215.445035 26.9265608 218.572873 29.6717956L214.841948 34.0684945zM233.059931 19.2442265L233.059931 26.930884 240.526105 26.930884 240.526105 32.6958771 233.003729 32.6958771 233.003729 44.390145C233.003729 46.9710981 234.432548 48.2334738 236.518494 48.2334738 237.64683 48.2015989 238.754119 47.9203474 239.760898 47.4099033L241.62636 53.1208564C239.868725 53.8554532 237.986638 54.2465457 236.081851 54.2729903 230.206616 54.4891506 226.354641 51.1451519 226.354641 44.390145L226.354641 32.6958771 221.309461 32.6958771 221.309461 26.930884 226.361126 26.930884 226.361126 19.9575552 233.059931 19.2442265zM280.051001 50.4858633C276.921001 53.5596616 273.62672 54.7679972 269.619109 54.7679972 261.76817 54.7679972 255.233646 50.047058 255.233646 40.4387362 255.233646 30.8304144 261.76817 26.1073135 269.619109 26.1073135 273.462438 26.1073135 276.428156 27.2054075 279.391713 30.114924L275.16578 34.5635014C273.677453 33.2072499 271.742801 32.4449277 269.729351 32.4213536 265.226733 32.4213536 261.932452 35.7156354 261.932452 40.4387362 261.932452 45.5984807 265.447217 48.3437155 269.619109 48.3437155 271.761257 48.3437155 273.901243 47.7406285 275.548384 46.0934876L280.051001 50.4858633zM303.461153 26.8768439L309.885435 26.8768439 309.885435 53.9444268 303.571395 53.9444268 303.242831 49.9908564C301.705932 53.1748964 297.477838 54.7139572 294.45808 54.7679972 286.442859 54.8220373 280.511423 49.8806146 280.511423 40.3825345 280.511423 31.0487362 286.717383 26.1635152 294.622362 26.2175552 298.245207 26.2175552 301.705932 27.9208978 303.242831 30.6099309L303.461153 26.8768439zM287.210228 40.3825345C287.210228 45.5444406 290.779033 48.618239 295.22761 48.618239 305.767583 48.618239 305.767583 32.2030318 295.22761 32.2030318 290.779033 32.2030318 287.210228 35.2227901 287.210228 40.3825345z"/>
    <polygon points="244.633 26.767 244.633 53.944 251.334 53.944 251.334 26.767"/>
    <path d="M251.976112 19.2290953C251.976112 24.6503936 243.762023 24.6503936 243.762023 19.2290953 243.762023 13.807797 251.976112 13.8056354 251.976112 19.2290953zM19.5011678 72C13.1358817 71.9927489 7.17380709 68.9118417 3.52539385 63.744505-.123019398 58.5771683-.999641274 51.9722629 1.17642744 46.0462232L13.4559774 12.6247009C17.186677 2.65088181 28.3471855-2.46624527 38.4365573 1.17102901 48.5259291 4.80830329 53.7566676 15.8345655 50.1445257 25.8511252L37.8649757 59.2726476C35.0478567 66.9137593 27.7125136 71.9976448 19.5011678 72zM31.8136168 4.77806807C25.678431 4.77950759 20.1976025 8.57781696 18.0926796 14.2869159L5.81312958 47.7186234C3.97782143 52.5825623 4.91783416 58.0480733 8.27547813 62.0354433 11.6331221 66.0228133 16.8920997 67.9189132 22.0512872 67.0022471 27.2104746 66.0855809 31.4765549 62.4971025 33.2262174 57.6022844L45.5057674 24.178725C47.1323361 19.750811 46.4775931 14.8153261 43.7513899 10.9541415 41.0251866 7.09295694 36.5699462 4.79105438 31.8136168 4.78621619L31.8136168 4.77806807zM108.320447 46.0840786L96.1207525 12.7100366C93.3010676 5.00108185 85.9001686-.0943105366 77.6617416.00132341521 69.4233147.096957367 62.143708 5.36276515 59.5052529 13.1350795L52.5281359 32.3866622 47.5210285 46.0779481C44.5536373 54.2233764 47.393563 63.3399739 54.4693302 68.3830636 61.5450974 73.4261533 71.126855 73.1628237 77.9125292 67.7387885 79.1314385 68.7102838 80.4623929 69.5334919 81.8771733 70.1909591 88.988468 73.4912255 97.395787 72.202481 103.181146 66.925307 108.966506 61.6481331 110.991421 53.4210106 108.312238 46.0779481L108.320447 46.0840786zM60.8103842 66.2388774C53.3025826 63.508834 49.4311849 55.2418125 52.1567071 47.7597285L56.6528433 35.4600494 56.8252192 35.4600494 56.9278238 35.4600494 57.3156695 35.4600494 57.5721811 35.4600494 57.5947541 35.4600494C58.2121962 35.4816905 58.8259977 35.5638259 59.4272734 35.7052665 59.7347333 35.7796236 60.037587 35.8717357 60.3342986 35.9811357L60.3856009 35.9974835C60.4676847 36.0281356 60.5477163 36.0649182 60.6277479 36.0976138 60.7077796 36.1303094 60.7713945 36.1527876 60.8329573 36.1854832L60.8801554 36.2079614C62.7886021 37.0805255 64.2271195 38.7010016 65.1690302 41.0428245L71.8444895 59.3053651C71.9450421 59.5791908 72.0496989 59.8468861 72.162564 60.1227553L72.2569603 60.3434506C72.3452003 60.5477982 72.4375445 60.7521457 72.5319408 60.9564933L72.624285 61.1608408C72.7474106 61.4142318 72.8766924 61.6655793 73.0100785 61.9148833 73.0388078 61.9680136 73.0716413 62.021144 73.1003706 62.0763178 73.2050273 62.2643176 73.3055799 62.4502739 73.4225492 62.6341867 73.4800078 62.7322735 73.5395185 62.8283168 73.6010813 62.9264037 73.6831651 63.0592296 73.769353 63.190012 73.8555409 63.3207944 73.9417288 63.4515769 74.0012395 63.5476202 74.077167 63.6579679L74.077167 63.6702287C74.2043967 63.8582285 74.3377828 64.0421413 74.4711689 64.2240106 70.5511331 67.1490304 65.4135691 67.9067839 60.8103842 66.2388774zM95.0372472 66.2388774C89.5790079 68.2103583 83.4660422 66.7494399 79.5008494 62.5258825L79.4454429 62.4666217C79.3017963 62.3113175 79.162254 62.1560134 79.0247637 61.9945788 79.008347 61.9761875 78.9939823 61.9557528 78.9775656 61.935318 78.8380233 61.77184 78.7046372 61.6063185 78.567147 61.4346665L78.5363656 61.3958405C78.4009274 61.2180581 78.2695934 61.0361888 78.1423637 60.852276L78.1423637 60.8359282C77.8687512 60.4476679 77.6197639 60.0451032 77.3954017 59.6282342 77.3965073 59.6228405 77.3965073 59.61728 77.3954017 59.6118864 77.2825366 59.4075388 77.1758277 59.2031913 77.071171 58.9845394L77.0157645 58.8619309C76.9295766 58.682105 76.8474928 58.5022792 76.7674612 58.3183664 76.6710128 58.0894971 76.5786686 57.8565409 76.4945328 57.6235847L69.8047089 39.3242616 69.7800837 39.2568269C69.7082605 39.0790445 69.6364372 38.9033056 69.5605098 38.7336972 69.5420409 38.6866972 69.52152 38.6437842 69.5009991 38.5988278 69.4455925 38.4762193 69.390186 38.3515672 69.3327274 38.2289587L69.213706 37.9919156C69.1747162 37.9101765 69.1357265 37.826394 69.0946846 37.748742 69.0536427 37.6710899 68.9900278 37.5546118 68.9387255 37.4585684L68.8463813 37.2869165C68.7752421 37.160221 68.7034188 37.035569 68.6309115 36.9129605L68.5898697 36.8455258C68.5118901 36.7147434 68.4298064 36.5860044 68.3497748 36.4593089 68.3415103 36.447514 68.3339721 36.4352306 68.3272017 36.4225264 68.2389617 36.2897005 68.1507217 36.158918 68.0624817 36.0322225L68.0624817 36.0199617C66.6246079 33.9212582 64.5725304 32.3144595 62.1852867 31.4180549L62.1750262 31.4180549C62.0744737 31.3792288 61.9698169 31.3444897 61.8754206 31.3097507L61.8631081 31.3097507 61.5737629 31.2116638 61.5552941 31.2116638 61.2721052 31.1258379 61.2515843 31.1258379 60.9766038 31.0481858 60.9519787 31.0481858 60.6769982 30.9766642 60.6585293 30.9766642 60.3814967 30.9112729 60.3712363 30.9112729 60.3507153 30.9112729 60.3035172 30.9010556C60.1721832 30.8724469 60.0408493 30.8458817 59.9115674 30.8234035L59.8253795 30.8070557 59.4149608 30.739621 59.3144083 30.7253167C59.1810222 30.7048819 59.0496882 30.6885341 58.9224585 30.6742298L58.8280622 30.6742298 58.5243524 30.6435776 58.4402165 30.6435776 64.1429836 14.7698599 64.1594004 14.7208165C66.1205732 8.91406717 71.55247 4.97541069 77.704195 4.89951551 83.8559201 4.82362033 89.3841401 8.62705944 91.489178 14.3836431L103.68682 47.7556415C106.415444 55.2377645 102.545613 63.507192 95.0372472 66.2388774L95.0372472 66.2388774z"/>
  </g>
</svg>
