<svg xmlns="http://www.w3.org/2000/svg" width="108" height="72" viewBox="0 0 108 72">
  <g fill="#003245" transform="translate(-5 -5)">
    <path d="M57.6876088,37.784962 C57.6876088,37.784962 67.1684589,35.466123 71.0122806,45.1394886 L71.6006427,46.7574845 L78.0682999,64.5251555 C79.6893899,68.9793915 83.0136053,72.6071662 87.3095877,74.6103353 C91.60557,76.6135044 96.5213778,76.8279615 100.975487,75.2065238 L100.975487,75.2065238 C110.250119,71.8298113 115.032047,61.5745219 111.656856,52.2993366 L98.786434,16.9435314 C95.4106036,7.66804139 85.1550462,2.88501984 75.8792467,6.26 L75.8792467,6.26 C70.7711251,8.1181632 66.7892282,12.2043858 65.0637664,17.3588459 L57.6876088,37.784962 Z"/>
    <path d="M78.8989288,73.4176434 L78.8686455,73.4392744 C78.7193918,73.3159779 77.7633034,72.4831859 75.9960539,70.1275743 L75.9960539,70.1275743 C75.1909756,68.8261186 74.5219403,67.445282 73.9995162,66.0068763 L67.5361852,48.2370422 L66.969454,46.6817761 C65.751631,43.6534416 63.72481,42.0830339 60.798141,41.8883552 C59.254998,41.8241489 57.7094399,41.8487045 56.1691154,41.9619005 L52.4053283,52.2993366 C50.7838906,56.753446 50.9983477,61.6692538 53.0015168,65.9652361 C55.0046859,70.2612185 58.6324606,73.5854339 63.0866966,75.2065238 L63.0866966,75.2065238 C68.3461546,77.1243399 74.2008528,76.4619821 78.8989288,73.4176434 L78.8989288,73.4176434 Z"/>
    <rect width="73.651" height="35.881" x="-7.317" y="22.833" rx="17.941" transform="rotate(-70 29.509 40.774)"/>
  </g>
</svg>
