<svg xmlns="http://www.w3.org/2000/svg" width="110" height="72" viewBox="0 0 110 72">
  <path fill="#003245" d="M19.5011678 72C13.1358817 71.9927489 7.17380709 68.9118417 3.52539385 63.744505-.123019398 58.5771683-.999641274 51.9722629 1.17642744 46.0462232L13.4559774 12.6247009C17.186677 2.65088181 28.3471855-2.46624527 38.4365573 1.17102901 48.5259291 4.80830329 53.7566676 15.8345655 50.1445257 25.8511252L37.8649757 59.2726476C35.0478567 66.9137593 27.7125136 71.9976448 19.5011678 72zM31.8136168 4.77806807C25.678431 4.77950759 20.1976025 8.57781696 18.0926796 14.2869159L5.81312958 47.7186234C3.97782143 52.5825623 4.91783416 58.0480733 8.27547813 62.0354433 11.6331221 66.0228133 16.8920997 67.9189132 22.0512872 67.0022471 27.2104746 66.0855809 31.4765549 62.4971025 33.2262174 57.6022844L45.5057674 24.178725C47.1323361 19.750811 46.4775931 14.8153261 43.7513899 10.9541415 41.0251866 7.09295694 36.5699462 4.79105438 31.8136168 4.78621619L31.8136168 4.77806807zM108.320447 46.0840786L96.1207525 12.7100366C93.3010676 5.00108185 85.9001686-.0943105366 77.6617416.00132341521 69.4233147.096957367 62.143708 5.36276515 59.5052529 13.1350795L52.5281359 32.3866622 47.5210285 46.0779481C44.5536373 54.2233764 47.393563 63.3399739 54.4693302 68.3830636 61.5450974 73.4261533 71.126855 73.1628237 77.9125292 67.7387885 79.1314385 68.7102838 80.4623929 69.5334919 81.8771733 70.1909591 88.988468 73.4912255 97.395787 72.202481 103.181146 66.925307 108.966506 61.6481331 110.991421 53.4210106 108.312238 46.0779481L108.320447 46.0840786zM60.8103842 66.2388774C53.3025826 63.508834 49.4311849 55.2418125 52.1567071 47.7597285L56.6528433 35.4600494 56.8252192 35.4600494 56.9278238 35.4600494 57.3156695 35.4600494 57.5721811 35.4600494 57.5947541 35.4600494C58.2121962 35.4816905 58.8259977 35.5638259 59.4272734 35.7052665 59.7347333 35.7796236 60.037587 35.8717357 60.3342986 35.9811357L60.3856009 35.9974835C60.4676847 36.0281356 60.5477163 36.0649182 60.6277479 36.0976138 60.7077796 36.1303094 60.7713945 36.1527876 60.8329573 36.1854832L60.8801554 36.2079614C62.7886021 37.0805255 64.2271195 38.7010016 65.1690302 41.0428245L71.8444895 59.3053651C71.9450421 59.5791908 72.0496989 59.8468861 72.162564 60.1227553L72.2569603 60.3434506C72.3452003 60.5477982 72.4375445 60.7521457 72.5319408 60.9564933L72.624285 61.1608408C72.7474106 61.4142318 72.8766924 61.6655793 73.0100785 61.9148833 73.0388078 61.9680136 73.0716413 62.021144 73.1003706 62.0763178 73.2050273 62.2643176 73.3055799 62.4502739 73.4225492 62.6341867 73.4800078 62.7322735 73.5395185 62.8283168 73.6010813 62.9264037 73.6831651 63.0592296 73.769353 63.190012 73.8555409 63.3207944 73.9417288 63.4515769 74.0012395 63.5476202 74.077167 63.6579679L74.077167 63.6702287C74.2043967 63.8582285 74.3377828 64.0421413 74.4711689 64.2240106 70.5511331 67.1490304 65.4135691 67.9067839 60.8103842 66.2388774zM95.0372472 66.2388774C89.5790079 68.2103583 83.4660422 66.7494399 79.5008494 62.5258825L79.4454429 62.4666217C79.3017963 62.3113175 79.162254 62.1560134 79.0247637 61.9945788 79.008347 61.9761875 78.9939823 61.9557528 78.9775656 61.935318 78.8380233 61.77184 78.7046372 61.6063185 78.567147 61.4346665L78.5363656 61.3958405C78.4009274 61.2180581 78.2695934 61.0361888 78.1423637 60.852276L78.1423637 60.8359282C77.8687512 60.4476679 77.6197639 60.0451032 77.3954017 59.6282342 77.3965073 59.6228405 77.3965073 59.61728 77.3954017 59.6118864 77.2825366 59.4075388 77.1758277 59.2031913 77.071171 58.9845394L77.0157645 58.8619309C76.9295766 58.682105 76.8474928 58.5022792 76.7674612 58.3183664 76.6710128 58.0894971 76.5786686 57.8565409 76.4945328 57.6235847L69.8047089 39.3242616 69.7800837 39.2568269C69.7082605 39.0790445 69.6364372 38.9033056 69.5605098 38.7336972 69.5420409 38.6866972 69.52152 38.6437842 69.5009991 38.5988278 69.4455925 38.4762193 69.390186 38.3515672 69.3327274 38.2289587L69.213706 37.9919156C69.1747162 37.9101765 69.1357265 37.826394 69.0946846 37.748742 69.0536427 37.6710899 68.9900278 37.5546118 68.9387255 37.4585684L68.8463813 37.2869165C68.7752421 37.160221 68.7034188 37.035569 68.6309115 36.9129605L68.5898697 36.8455258C68.5118901 36.7147434 68.4298064 36.5860044 68.3497748 36.4593089 68.3415103 36.447514 68.3339721 36.4352306 68.3272017 36.4225264 68.2389617 36.2897005 68.1507217 36.158918 68.0624817 36.0322225L68.0624817 36.0199617C66.6246079 33.9212582 64.5725304 32.3144595 62.1852867 31.4180549L62.1750262 31.4180549C62.0744737 31.3792288 61.9698169 31.3444897 61.8754206 31.3097507L61.8631081 31.3097507 61.5737629 31.2116638 61.5552941 31.2116638 61.2721052 31.1258379 61.2515843 31.1258379 60.9766038 31.0481858 60.9519787 31.0481858 60.6769982 30.9766642 60.6585293 30.9766642 60.3814967 30.9112729 60.3712363 30.9112729 60.3507153 30.9112729 60.3035172 30.9010556C60.1721832 30.8724469 60.0408493 30.8458817 59.9115674 30.8234035L59.8253795 30.8070557 59.4149608 30.739621 59.3144083 30.7253167C59.1810222 30.7048819 59.0496882 30.6885341 58.9224585 30.6742298L58.8280622 30.6742298 58.5243524 30.6435776 58.4402165 30.6435776 64.1429836 14.7698599 64.1594004 14.7208165C66.1205732 8.91406717 71.55247 4.97541069 77.704195 4.89951551 83.8559201 4.82362033 89.3841401 8.62705944 91.489178 14.3836431L103.68682 47.7556415C106.415444 55.2377645 102.545613 63.507192 95.0372472 66.2388774L95.0372472 66.2388774z"/>
</svg>
