<svg xmlns="http://www.w3.org/2000/svg" width="108" height="72" viewBox="0 0 108 72">
  <defs>
    <linearGradient id="mistica_isotype_positive-a" x1="24.591%" x2="89.844%" y1="107.73%" y2="-24.007%">
      <stop offset="0%" stop-color="#003245" stop-opacity="0"/>
      <stop offset="100%" stop-color="#003245"/>
    </linearGradient>
  </defs>
  <g fill="none" transform="translate(-5 -5)">
    <rect width="73.702" height="35.906" x="-7.267" y="22.96" fill="#003245" rx="17.953" transform="rotate(-70 29.584 40.913)"/>
    <path fill="#00EDFF" d="M57.6668949,37.9517911 C57.6668949,37.9517911 67.1910996,35.6226902 71.0505671,45.3395436 L71.6479945,46.9716459 L78.1417704,64.8187068 C81.5348514,74.132416 91.8341978,78.9337389 101.149219,75.54426 L101.149219,75.54426 C105.623583,73.9161707 109.267832,70.5771662 111.280122,66.2619256 C113.292413,61.9466849 113.507875,57.0087629 111.879101,52.5346473 L98.9521577,17.0158575 C97.3253105,12.5402739 93.9869627,8.89439442 89.6716908,6.88046556 C85.3564189,4.86653669 80.4178028,4.64957341 75.942545,6.27731674 L75.942545,6.27731674 C70.8066881,8.14020977 66.801632,12.2448942 65.0654703,17.4249654 L57.6668949,37.9517911 Z"/>
    <path fill="#00EDFF" d="M78.1417704,64.812213 L71.6479945,46.9716459 L71.0548963,45.3460373 C67.1954288,35.629184 57.6712241,37.9582849 57.6712241,37.9582849 L52.3614799,52.5324827 C50.7320344,57.0068654 50.9471511,61.9453373 52.9594893,66.2610862 C54.9718275,70.5768351 58.6164786,73.916191 63.0913624,75.54426 L63.0913624,75.54426 C69.7404614,77.9664099 77.1921184,76.2567077 82.1202905,71.178278 C80.3588693,69.3614674 79.0028545,67.191696 78.1417704,64.812213 Z"/>
    <path fill="url(#mistica_isotype_positive-a)" d="M78.1417704,64.812213 L71.6479945,46.9716459 L71.0548963,45.3460373 C67.1954288,35.629184 57.6712241,37.9582849 57.6712241,37.9582849 L52.3614799,52.5324827 C50.7320344,57.0068654 50.9471511,61.9453373 52.9594893,66.2610862 C54.9718275,70.5768351 58.6164786,73.916191 63.0913624,75.54426 L63.0913624,75.54426 C69.7404614,77.9664099 77.1921184,76.2567077 82.1202905,71.178278 C80.3588693,69.3614674 79.0028545,67.191696 78.1417704,64.812213 Z"/>
  </g>
</svg>
