<svg xmlns="http://www.w3.org/2000/svg" width="108" height="72" viewBox="0 0 108 72">
  <defs>
    <linearGradient id="mistica_isotype_negative-a" x1="24.592%" x2="89.84%" y1="107.744%" y2="-23.989%">
      <stop offset="0%" stop-color="#003245" stop-opacity="0"/>
      <stop offset="100%" stop-color="#003245"/>
    </linearGradient>
  </defs>
  <g fill="none" transform="translate(-5 -5)">
    <rect width="73.439" height="35.778" x="-7.172" y="22.768" fill="#FFF" rx="17.889" transform="rotate(-70 29.547 40.657)"/>
    <path fill="#FFF" d="M57.5317619,37.7060157 C57.5317619,37.7060157 67.0218928,35.3830904 70.8653958,45.0651808 L71.4563722,46.6871305 L77.926916,64.4703417 C81.3060858,73.7535956 91.570658,78.5401887 100.85421,75.1618369 L100.85421,75.1618369 C105.312723,73.5391147 108.94396,70.2116468 110.949025,65.9114969 C112.95409,61.611347 113.168723,56.6907926 111.545705,52.2323865 L98.6671658,16.8428255 C95.287996,7.55957165 85.0234238,2.77297857 75.7398722,6.15133032 L75.7398722,6.15133032 C70.6238667,8.00746703 66.63361,12.0953957 64.9017113,17.2547835 L57.5317619,37.7060157 Z"/>
    <path fill="#FFF" d="M77.9290728,64.4703417 L71.458529,46.6871305 L70.8675527,45.0651808 C67.0218928,35.3852473 57.5339187,37.7060157 57.5339187,37.7060157 L52.2453276,52.2323865 C50.6223093,56.6907926 50.8369428,61.611347 52.8420075,65.9114969 C54.8470722,70.2116468 58.4783089,73.5391147 62.9368228,75.1618369 L62.9368228,75.1618369 C69.5621395,77.5704089 76.9841725,75.8664654 81.8955162,70.8093178 C80.1395646,69.0009154 78.7876052,66.84028 77.9290728,64.4703417 L77.9290728,64.4703417 Z"/>
    <path fill="url(#mistica_isotype_negative-a)" d="M77.9290728,64.4703417 L71.458529,46.6871305 L70.8675527,45.0651808 C67.0218928,35.3852473 57.5339187,37.7060157 57.5339187,37.7060157 L52.2453276,52.2323865 C50.6223093,56.6907926 50.8369428,61.611347 52.8420075,65.9114969 C54.8470722,70.2116468 58.4783089,73.5391147 62.9368228,75.1618369 L62.9368228,75.1618369 C69.5621395,77.5704089 76.9841725,75.8664654 81.8955162,70.8093178 C80.1395646,69.0009154 78.7876052,66.84028 77.9290728,64.4703417 L77.9290728,64.4703417 Z"/>
  </g>
</svg>
