<svg xmlns="http://www.w3.org/2000/svg" width="308" height="72" viewBox="0 0 308 72">
  <defs>
    <linearGradient id="mistica_imagotype_negative-a" x1="24.592%" x2="89.84%" y1="107.744%" y2="-23.989%">
      <stop offset="0%" stop-color="#003245" stop-opacity="0"/>
      <stop offset="100%" stop-color="#003245"/>
    </linearGradient>
  </defs>
  <g fill="none" transform="translate(-5 -5)">
    <path fill="#FFF" d="M157.337743 58.1939142L157.337743 43.7300919C157.337743 40.169136 155.474227 36.9381778 151.803272 36.9381778 148.188394 36.9381778 146.050958 40.1734497 146.050958 43.7300919L146.050958 58.1939142 139.36473 58.1939142 139.36473 31.1297863 145.554883 31.1297863 146.046644 34.4168225C147.472321 31.6797825 150.595437 30.6919462 153.164243 30.6919462 156.399515 30.6919462 159.634786 32.0076234 161.163992 35.7324998 163.573191 31.8976242 166.696307 30.8019454 170.203341 30.8019454 177.873093 30.8019454 181.65189 35.5125013 181.65189 43.6222495L181.65189 58.1939142 174.965662 58.1939142 174.965662 43.6222495C174.965662 40.0612936 173.488221 37.048177 169.871187 37.048177 166.254153 37.048177 164.008874 40.169136 164.008874 43.7344056L164.008874 58.1982279 157.337743 58.1939142zM187.501262 58.1939142L187.501262 32.1176226 194.513174 32.1176226 194.513174 58.1939142 187.501262 58.1939142zM197.135902 19.9551571L189.960068 19.9551571 187.658712 27.7349076 187.658712 28.0627485 193.083184 28.0627485 197.135902 20.2290768 197.135902 19.9551571zM217.362821 38.3616974C215.445384 36.5542589 213.26481 35.9524983 210.676593 35.9524983 207.499556 35.9524983 205.746038 36.9381778 205.746038 38.6356171 205.746038 40.3891345 207.335635 41.374814 210.786592 41.5948125 215.881067 41.9226534 222.347297 43.0744102 222.347297 50.2502433 222.347297 55.0168772 218.464971 59.1256725 210.732671 59.1256725 206.459955 59.1256725 202.185083 58.4139127 198.242365 54.3051174L201.529401 49.5384834C203.446839 51.6737629 207.829554 53.2633598 210.84267 53.317281 213.361869 53.3733591 215.717147 52.0576818 215.717147 50.0820091 215.717147 48.2184925 214.183628 47.4528115 210.348752 47.232813 205.254277 46.8488941 199.171966 44.9875343 199.171966 38.8513019 199.171966 32.5964429 205.64251 30.4137128 210.56875 30.4137128 214.785388 30.4137128 217.964582 31.2354718 221.085541 33.9746687L217.362821 38.3616974zM235.540736 23.5700343L235.540736 31.2397855 242.990489 31.2397855 242.990489 36.992099 235.484658 36.992099 235.484658 48.6606463C235.484658 51.2359228 236.910334 52.495522 238.991693 52.495522 240.117546 52.4637172 241.2224 52.1830843 242.226965 51.6737629L244.088324 57.3721551C242.334555 58.1051363 240.456607 58.4953687 238.556009 58.5217551 232.693697 58.7374399 228.850194 55.4007961 228.850194 48.6606463L228.850194 36.992099 223.816111 36.992099 223.816111 31.2397855 228.856664 31.2397855 228.856664 24.2817941 235.540736 23.5700343zM282.428453 54.7429575C279.305337 57.8099953 276.018301 59.0156733 272.019505 59.0156733 264.185833 59.0156733 257.665682 54.3051174 257.665682 44.7179283 257.665682 35.1307392 264.185833 30.4180265 272.019505 30.4180265 275.854381 30.4180265 278.813576 31.5137052 281.770615 34.4168225L277.553977 38.8556156C276.068923 37.5023471 274.138526 36.7417016 272.129504 36.7181793 267.63679 36.7181793 264.349754 40.0052156 264.349754 44.7179283 264.349754 49.8663243 267.856789 52.6055212 272.019505 52.6055212 274.156941 52.6055212 276.292221 52.0037606 277.935739 50.3602425L282.428453 54.7429575zM305.787116 31.1858643L312.197268 31.1858643 312.197268 58.1939142 305.897116 58.1939142 305.569275 54.2490393C304.035756 57.4260763 299.816961 58.9617521 296.803845 59.0156733 288.806253 59.0695945 282.887862 54.1390401 282.887862 44.6618503 282.887862 35.3485809 289.080172 30.4741045 296.967765 30.5280257 300.582642 30.5280257 304.035756 32.2276219 305.569275 34.9107407L305.787116 31.1858643zM289.571934 44.6618503C289.571934 49.8124031 293.13289 52.8794409 297.571683 52.8794409 308.088473 52.8794409 308.088473 36.5003377 297.571683 36.5003377 293.13289 36.5003377 289.571934 39.5134542 289.571934 44.6618503z"/>
    <polygon fill="#FFF" points="247.089 31.076 247.089 58.194 253.775 58.194 253.775 31.076"/>
    <path fill="#FFF" d="M254.415312,23.5549363 C254.415312,28.964311 246.21929,28.964311 246.21929,23.5549363 C246.21929,18.1455617 254.415312,18.1434049 254.415312,23.5549363 Z"/>
    <rect width="73.439" height="35.778" x="-7.172" y="22.768" fill="#FFF" rx="17.889" transform="rotate(-70 29.547 40.657)"/>
    <path fill="#FFF" d="M57.5317619,37.7060157 C57.5317619,37.7060157 67.0218928,35.3830904 70.8653958,45.0651808 L71.4563722,46.6871305 L77.926916,64.4703417 C81.3060858,73.7535956 91.570658,78.5401887 100.85421,75.1618369 L100.85421,75.1618369 C105.312723,73.5391147 108.94396,70.2116468 110.949025,65.9114969 C112.95409,61.611347 113.168723,56.6907926 111.545705,52.2323865 L98.6671658,16.8428255 C95.287996,7.55957165 85.0234238,2.77297857 75.7398722,6.15133032 L75.7398722,6.15133032 C70.6238667,8.00746703 66.63361,12.0953957 64.9017113,17.2547835 L57.5317619,37.7060157 Z"/>
    <path fill="#FFF" d="M77.9290728,64.4703417 L71.458529,46.6871305 L70.8675527,45.0651808 C67.0218928,35.3852473 57.5339187,37.7060157 57.5339187,37.7060157 L52.2453276,52.2323865 C50.6223093,56.6907926 50.8369428,61.611347 52.8420075,65.9114969 C54.8470722,70.2116468 58.4783089,73.5391147 62.9368228,75.1618369 L62.9368228,75.1618369 C69.5621395,77.5704089 76.9841725,75.8664654 81.8955162,70.8093178 C80.1395646,69.0009154 78.7876052,66.84028 77.9290728,64.4703417 L77.9290728,64.4703417 Z"/>
    <path fill="url(#mistica_imagotype_negative-a)" d="M77.9290728,64.4703417 L71.458529,46.6871305 L70.8675527,45.0651808 C67.0218928,35.3852473 57.5339187,37.7060157 57.5339187,37.7060157 L52.2453276,52.2323865 C50.6223093,56.6907926 50.8369428,61.611347 52.8420075,65.9114969 C54.8470722,70.2116468 58.4783089,73.5391147 62.9368228,75.1618369 L62.9368228,75.1618369 C69.5621395,77.5704089 76.9841725,75.8664654 81.8955162,70.8093178 C80.1395646,69.0009154 78.7876052,66.84028 77.9290728,64.4703417 L77.9290728,64.4703417 Z"/>
  </g>
</svg>
