<svg xmlns="http://www.w3.org/2000/svg" width="500" height="120" viewBox="0 0 500 120">
  <defs>
    <linearGradient id="logo-footer-a" x1="24.591%" x2="89.844%" y1="107.73%" y2="-24.007%">
      <stop offset="0%" stop-color="#003245" stop-opacity="0"/>
      <stop offset="100%" stop-color="#003245"/>
    </linearGradient>
  </defs>
  <g fill="none" transform="translate(0 20)">
    <rect width="72.061" height="35.107" x="-7.196" y="22.448" fill="#003245" rx="17.553" transform="rotate(-70 28.835 40.001)"/>
    <path fill="#00EDFF" d="M56.2923398,37.1059621 C56.2923398,37.1059621 65.6045091,34.8287134 69.3780541,44.3292425 L69.9621811,45.9250097 L76.3113874,63.3747452 C79.628929,72.4811053 89.6989832,77.1755373 98.8066255,73.8615177 L98.8066255,73.8615177 C103.181378,72.2696742 106.744496,69.0050053 108.711987,64.7858339 C110.679478,60.5666625 110.890144,55.7386724 109.297631,51.3641632 L96.6584774,16.6361208 C95.0678484,12.2601761 91.8038216,8.69546417 87.5846197,6.72637098 C83.3654178,4.75727779 78.536749,4.54514472 74.1611229,6.13664994 L74.1611229,6.13664994 C69.1396046,7.95806977 65.2237122,11.9713724 63.5262023,17.0361208 L56.2923398,37.1059621 Z"/>
    <path fill="#00EDFF" d="M76.3113874,63.368396 L69.9621811,45.9250097 L69.3822869,44.3355917 C65.6087419,34.8350626 56.2965726,37.1123113 56.2965726,37.1123113 L51.1050382,51.3620468 C49.5118687,55.7368172 49.7221963,60.5653449 51.6897343,64.7850132 C53.6572722,69.0046815 57.2207832,72.269694 61.5960435,73.8615177 L61.5960435,73.8615177 C68.097115,76.2297437 75.3828773,74.5581043 80.2013345,69.5927346 C78.4791276,67.8163712 77.1533014,65.6949051 76.3113874,63.368396 Z"/>
    <path fill="url(#logo-footer-a)" d="M76.3113874,63.368396 L69.9621811,45.9250097 L69.3822869,44.3355917 C65.6087419,34.8350626 56.2965726,37.1123113 56.2965726,37.1123113 L51.1050382,51.3620468 C49.5118687,55.7368172 49.7221963,60.5653449 51.6897343,64.7850132 C53.6572722,69.0046815 57.2207832,72.269694 61.5960435,73.8615177 L61.5960435,73.8615177 C68.097115,76.2297437 75.3828773,74.5581043 80.2013345,69.5927346 C78.4791276,67.8163712 77.1533014,65.6949051 76.3113874,63.368396 Z"/>
  </g>
</svg>
