<svg xmlns="http://www.w3.org/2000/svg" width="313" height="73" viewBox="0 0 313 73">
  <g fill="#003245" transform="translate(2)">
    <path d="M155.684558 53.9444268L155.684558 39.4487224C155.684558 35.8799171 153.816934 32.641837 150.137887 32.641837 146.515041 32.641837 144.372894 35.8842403 144.372894 39.4487224L144.372894 53.9444268 137.671927 53.9444268 137.671927 26.8206423 143.875725 26.8206423 144.36857 30.114924C145.79739 27.3718508 148.92739 26.381837 151.501858 26.381837 154.744261 26.381837 157.986664 27.7004144 159.51924 31.4335014 161.93375 27.5901727 165.06375 26.4920787 168.578515 26.4920787 176.265173 26.4920787 180.0523 31.213018 180.0523 39.3406423L180.0523 53.9444268 173.351333 53.9444268 173.351333 39.3406423C173.351333 35.771837 171.870635 32.7520787 168.245628 32.7520787 164.620622 32.7520787 162.370394 35.8799171 162.370394 39.4530456L162.370394 53.94875 155.684558 53.9444268zM185.914565 53.9444268L185.914565 27.8106561 192.941934 27.8106561 192.941934 53.9444268 185.914565 53.9444268zM195.570442 15.6213812L188.378791 15.6213812 186.072362 23.4182804 186.072362 23.7468439 191.508791 23.7468439 195.570442 15.8959047 195.570442 15.6213812zM215.841948 34.0684945C213.920283 32.2570718 211.734903 31.6539848 209.140981 31.6539848 205.956941 31.6539848 204.199558 32.641837 204.199558 34.343018 204.199558 36.1004006 205.792659 37.0882528 209.251222 37.3087362 214.356927 37.6372997 220.83741 38.7915953 220.83741 45.9832459 220.83741 50.7603867 216.946526 54.878239 209.197182 54.878239 204.915048 54.878239 200.630753 54.1649102 196.679344 50.047058L199.973626 45.2699171C201.89529 47.4099033 206.287666 49.0030041 209.307424 49.0570442 211.832175 49.1132459 214.192645 47.7946685 214.192645 45.8146409 214.192645 43.9470166 212.655746 43.1796478 208.812417 42.9591644 203.706713 42.5743992 197.610994 40.7089365 197.610994 34.5591782 197.610994 28.2905318 204.095801 26.1029903 209.032901 26.1029903 213.258833 26.1029903 216.445035 26.9265608 219.572873 29.6717956L215.841948 34.0684945zM234.059931 19.2442265L234.059931 26.930884 241.526105 26.930884 241.526105 32.6958771 234.003729 32.6958771 234.003729 44.390145C234.003729 46.9710981 235.432548 48.2334738 237.518494 48.2334738 238.64683 48.2015989 239.754119 47.9203474 240.760898 47.4099033L242.62636 53.1208564C240.868725 53.8554532 238.986638 54.2465457 237.081851 54.2729903 231.206616 54.4891506 227.354641 51.1451519 227.354641 44.390145L227.354641 32.6958771 222.309461 32.6958771 222.309461 26.930884 227.361126 26.930884 227.361126 19.9575552 234.059931 19.2442265zM281.051001 50.4858633C277.921001 53.5596616 274.62672 54.7679972 270.619109 54.7679972 262.76817 54.7679972 256.233646 50.047058 256.233646 40.4387362 256.233646 30.8304144 262.76817 26.1073135 270.619109 26.1073135 274.462438 26.1073135 277.428156 27.2054075 280.391713 30.114924L276.16578 34.5635014C274.677453 33.2072499 272.742801 32.4449277 270.729351 32.4213536 266.226733 32.4213536 262.932452 35.7156354 262.932452 40.4387362 262.932452 45.5984807 266.447217 48.3437155 270.619109 48.3437155 272.761257 48.3437155 274.901243 47.7406285 276.548384 46.0934876L281.051001 50.4858633zM304.461153 26.8768439L310.885435 26.8768439 310.885435 53.9444268 304.571395 53.9444268 304.242831 49.9908564C302.705932 53.1748964 298.477838 54.7139572 295.45808 54.7679972 287.442859 54.8220373 281.511423 49.8806146 281.511423 40.3825345 281.511423 31.0487362 287.717383 26.1635152 295.622362 26.2175552 299.245207 26.2175552 302.705932 27.9208978 304.242831 30.6099309L304.461153 26.8768439zM288.210228 40.3825345C288.210228 45.5444406 291.779033 48.618239 296.22761 48.618239 306.767583 48.618239 306.767583 32.2030318 296.22761 32.2030318 291.779033 32.2030318 288.210228 35.2227901 288.210228 40.3825345z"/>
    <polygon points="245.633 26.767 245.633 53.944 252.334 53.944 252.334 26.767"/>
    <path d="M252.976112 19.2290953C252.976112 24.6503936 244.762023 24.6503936 244.762023 19.2290953 244.762023 13.807797 252.976112 13.8056354 252.976112 19.2290953zM19.7720173 73C13.3183245 72.9926481 7.2734433 69.8689506 3.57435765 64.6298453-.124728001 59.3907401-1.01352518 52.6940999 1.19276671 46.6857541L13.642866 12.8000439C17.4253809 2.68769961 28.7408964-2.50049868 38.9703984 1.1872933 49.1999003 4.87508528 54.503288 16.05449 50.8409774 26.2101686L38.3908781 60.0958788C35.5346324 67.8431171 28.0974096 72.9976121 19.7720173 73zM32.2554726 4.84443013C26.0350758 4.84588964 20.4781247 8.6969533 18.3439668 14.4853453L5.89386749 48.381382C4.03306895 53.3128757 4.98613741 58.8542965 8.39041533 62.8970467 11.7946932 66.9397969 17.1267122 68.8622314 22.357555 67.9328338 27.5883979 67.0034362 31.9137293 63.3651178 33.6876926 58.4023161L46.1377919 24.5145407C47.7869519 20.0251279 47.1231153 15.0210945 44.3590481 11.1062824 41.5949809 7.19147023 37.0778621 4.8575968 32.2554726 4.85269141L32.2554726 4.84443013zM109.824897 46.7241352L97.4557629 12.8865649C94.5969158 5.07054132 87.0932265-.0956204052 78.7403769.00134179597 70.3875274.0983039971 63.006815 5.437248 60.3317148 13.3175112L53.2576934 32.836477 48.1810427 46.7179196C45.1724378 54.9764789 48.0518069 64.2196958 55.2258486 69.3328284 62.3998904 74.445961 72.114728 74.178974 78.9946477 68.679605 80.2304863 69.6645933 81.5799261 70.4992349 83.0143563 71.1658335 90.224419 74.5119369 98.7485063 73.2052932 104.614218 67.8548252 110.47993 62.5043571 112.532968 54.1629691 109.816575 46.7179196L109.824897 46.7241352zM61.6549729 67.1588619C54.0428962 64.3909011 50.1177291 56.0090599 52.8811058 48.423058L57.4396884 35.9525501 57.6144583 35.9525501 57.7184881 35.9525501 58.1117204 35.9525501 58.3717947 35.9525501 58.3946813 35.9525501C59.0206989 35.9744918 59.6430254 36.0577679 60.2526522 36.2011729 60.5643823 36.2765628 60.8714424 36.3699542 61.172275 36.4808737L61.2242898 36.4974485C61.3075136 36.5285264 61.3886568 36.5658198 61.4698 36.5989695 61.5509432 36.6321192 61.6154416 36.6549097 61.6778594 36.6880594L61.7257131 36.7108498C63.660666 37.5955328 65.1191628 39.2385155 66.0741557 41.6128637L72.8423297 60.1290507C72.9442788 60.4066795 73.0503891 60.6780928 73.1648218 60.9577935L73.2605292 61.1815541C73.3499947 61.3887398 73.4436215 61.5959255 73.5393288 61.8031112L73.6329556 62.0102969C73.7577913 62.2672072 73.8888687 62.5220456 74.0241074 62.7748122 74.0532357 62.8286805 74.0865252 62.8825488 74.1156535 62.9384889 74.2217638 63.1290998 74.323713 63.3176388 74.4423069 63.5041059 74.5005635 63.6035551 74.5609007 63.7009323 74.6233186 63.8003815 74.7065424 63.9350522 74.7939273 64.0676511 74.8813123 64.2002499 74.9686973 64.3328488 75.0290345 64.430226 75.1060165 64.5421063L75.1060165 64.5545375C75.2350134 64.7451483 75.370252 64.9316155 75.5054907 65.1160107 71.5310099 68.0816559 66.3220909 68.8499337 61.6549729 67.1588619zM96.357209 67.1588619C90.8231608 69.1577244 84.6252928 67.6765154 80.6050278 63.3942975L80.5488518 63.3342136C80.4032102 63.1767525 80.2617297 63.0192914 80.1223299 62.8556146 80.1056852 62.8369679 80.091121 62.8162494 80.0744762 62.7955308 79.9329958 62.6297822 79.7977572 62.4619618 79.6583573 62.2879258L79.6271484 62.2485605C79.4898292 62.0683089 79.3566711 61.8839137 79.2276743 61.6974465L79.2276743 61.6808717C78.9502617 61.2872188 78.6978162 60.879063 78.4703379 60.4564041 78.4714588 60.4509355 78.4714588 60.4452978 78.4703379 60.4398293 78.3559052 60.2326435 78.2477142 60.0254578 78.1416039 59.8037691L78.0854279 59.6794577C77.9980429 59.4971343 77.9148191 59.3148108 77.8336759 59.1283437 77.735888 58.8962957 77.6422612 58.660104 77.5569569 58.4239123L70.7742187 39.8704319 70.7492516 39.8020606C70.6764308 39.621809 70.60361 39.4436293 70.526628 39.2716652 70.5079026 39.2240125 70.4870967 39.1805035 70.4662907 39.1349226 70.4101147 39.0106112 70.3539386 38.8842279 70.295682 38.7599165L70.1750075 38.5195811C70.1354762 38.4367068 70.0959449 38.3517606 70.054333 38.2730301 70.0127211 38.1942995 69.9482227 38.0762036 69.8962078 37.9788263L69.8025811 37.8047903C69.7304538 37.6763352 69.657633 37.5499519 69.5841186 37.4256405L69.5425067 37.3572692C69.4634442 37.2246704 69.3802204 37.0941434 69.2990772 36.9656882 69.2906979 36.9537294 69.283055 36.9412754 69.2761906 36.9283948 69.1867251 36.7937241 69.0972595 36.6611252 69.007794 36.5326701L69.007794 36.5202389C67.5499497 34.3923868 65.4693711 32.7632714 63.0489712 31.8544167L63.0385683 31.8544167C62.9366191 31.8150514 62.8305088 31.7798299 62.7348015 31.7446083L62.7223179 31.7446083 62.4289541 31.6451592 62.4102287 31.6451592 62.1231067 31.5581412 62.1023007 31.5581412 61.8235011 31.4794106 61.7985339 31.4794106 61.5197343 31.4068956 61.5010089 31.4068956 61.2201286 31.3405962 61.2097257 31.3405962 61.1889197 31.3405962 61.141066 31.3302369C61.007908 31.3012309 60.8747499 31.2742967 60.7436725 31.2515063L60.6562875 31.2349315 60.2401686 31.1665602 60.1382195 31.1520572C60.0029808 31.1313386 59.8698228 31.1147637 59.7408259 31.1002607L59.6451186 31.1002607 59.3371906 31.0691829 59.2518862 31.0691829 65.0338584 14.9749969 65.0505032 14.9252723C67.0389145 9.03787366 72.5462543 5.04451361 78.7834199 4.96756433 85.0205856 4.89061505 90.6255865 8.74687971 92.7598611 14.5834159L105.126915 48.4189143C107.893437 56.0049557 103.969857 64.3892364 96.357209 67.1588619L96.357209 67.1588619z"/>
  </g>
</svg>
