<svg xmlns="http://www.w3.org/2000/svg" width="313" height="73" viewBox="0 0 313 73">
  <defs>
    <linearGradient id="misticalogo_positive-a" x1="24.591%" x2="89.844%" y1="107.73%" y2="-24.007%">
      <stop offset="0%" stop-color="#003245" stop-opacity="0"/>
      <stop offset="100%" stop-color="#003245"/>
    </linearGradient>
  </defs>
  <g fill="none" transform="translate(0 -5)">
    <rect width="73.702" height="35.906" x="-7.267" y="22.96" fill="#003245" rx="17.953" transform="rotate(-70 29.584 40.913)"/>
    <path fill="#00EDFF" d="M57.6668949,37.9517911 C57.6668949,37.9517911 67.1910996,35.6226902 71.0505671,45.3395436 L71.6479945,46.9716459 L78.1417704,64.8187068 C81.5348514,74.132416 91.8341978,78.9337389 101.149219,75.54426 L101.149219,75.54426 C105.623583,73.9161707 109.267832,70.5771662 111.280122,66.2619256 C113.292413,61.9466849 113.507875,57.0087629 111.879101,52.5346473 L98.9521577,17.0158575 C97.3253105,12.5402739 93.9869627,8.89439442 89.6716908,6.88046556 C85.3564189,4.86653669 80.4178028,4.64957341 75.942545,6.27731674 L75.942545,6.27731674 C70.8066881,8.14020977 66.801632,12.2448942 65.0654703,17.4249654 L57.6668949,37.9517911 Z"/>
    <path fill="#00EDFF" d="M78.1417704,64.812213 L71.6479945,46.9716459 L71.0548963,45.3460373 C67.1954288,35.629184 57.6712241,37.9582849 57.6712241,37.9582849 L52.3614799,52.5324827 C50.7320344,57.0068654 50.9471511,61.9453373 52.9594893,66.2610862 C54.9718275,70.5768351 58.6164786,73.916191 63.0913624,75.54426 L63.0913624,75.54426 C69.7404614,77.9664099 77.1921184,76.2567077 82.1202905,71.178278 C80.3588693,69.3614674 79.0028545,67.191696 78.1417704,64.812213 Z"/>
    <path fill="url(#misticalogo_positive-a)" d="M78.1417704,64.812213 L71.6479945,46.9716459 L71.0548963,45.3460373 C67.1954288,35.629184 57.6712241,37.9582849 57.6712241,37.9582849 L52.3614799,52.5324827 C50.7320344,57.0068654 50.9471511,61.9453373 52.9594893,66.2610862 C54.9718275,70.5768351 58.6164786,73.916191 63.0913624,75.54426 L63.0913624,75.54426 C69.7404614,77.9664099 77.1921184,76.2567077 82.1202905,71.178278 C80.3588693,69.3614674 79.0028545,67.191696 78.1417704,64.812213 Z"/>
    <path fill="#003245" d="M157.398306 58.6193154L157.398306 44.1035615C157.398306 40.5298202 155.530263 37.2872614 151.846127 37.2872614 148.218271 37.2872614 146.07316 40.5341494 146.07316 44.1035615L146.07316 58.6193154 139.362925 58.6193154 139.362925 31.4580152 145.577469 31.4580152 146.070996 34.7568534C147.501791 32.0099862 150.633956 31.018603 153.214149 31.018603 156.461037 31.018603 159.707925 32.3390041 161.240456 36.0772545 163.66047 32.22861 166.794799 31.1289972 170.312261 31.1289972 178.00955 31.1289972 181.80408 35.8564661 181.80408 43.995332L181.80408 58.6193154 175.093845 58.6193154 175.093845 43.995332C175.093845 40.4215906 173.608935 37.3976556 169.981079 37.3976556 166.353223 37.3976556 164.097718 40.5298202 164.097718 44.1078907L164.097718 58.6236445 157.398306 58.6193154zM187.670124 58.6193154L187.670124 32.4493983 194.707213 32.4493983 194.707213 58.6193154 187.670124 58.6193154zM197.345851 20.2432642L190.144253 20.2432642 187.834633 28.0509474 187.834633 28.3799654 193.276418 28.3799654 197.345851 20.5181674 197.345851 20.2432642zM217.641065 38.7158921C215.716743 36.901964 213.52834 36.2980429 210.93083 36.2980429 207.742386 36.2980429 205.982573 37.2872614 205.982573 38.9907953 205.982573 40.7506086 207.577877 41.7398271 211.041224 41.9606155 216.15399 42.2896335 222.641272 43.4455256 222.641272 50.6471231 222.641272 55.4308714 218.745007 59.5544191 210.987109 59.5544191 206.696888 59.5544191 202.408831 58.8401037 198.449793 54.716556L201.748631 49.9328077C203.672953 52.0757538 208.071404 53.6710581 211.095339 53.7251729 213.625747 53.7814523 215.989481 52.4610512 215.989481 50.4782849 215.989481 48.6080775 214.450456 47.8396473 210.601812 47.6188589 205.489046 47.2335615 199.384896 45.3655187 199.384896 39.2072545 199.384896 32.9299378 205.878672 30.7393707 210.820436 30.7393707 215.054378 30.7393707 218.242822 31.5640802 221.377151 34.313112L217.641065 38.7158921zM235.884246 23.8711203L235.884246 31.5684094 243.360747 31.5684094 243.360747 37.3413762 235.827967 37.3413762 235.827967 49.0518188C235.827967 51.6363416 237.258762 52.9004633 239.347593 52.9004633 240.477539 52.8689018 241.586437 52.5872417 242.594481 52.0757538L244.464689 57.7946058C242.704511 58.5298599 240.819891 58.9214789 238.91251 58.9483333 233.029149 59.1647925 229.171846 55.8161687 229.171846 49.0518188L229.171846 37.3413762 224.113195 37.3413762 224.113195 31.5684094 229.171846 31.5684094 229.171846 24.5854357 235.884246 23.8711203zM282.940311 55.1559682C279.805982 58.234018 276.507144 59.4440249 272.49399 59.4440249 264.632192 59.4440249 258.088631 54.716556 258.088631 45.0949447 258.088631 35.4733333 264.632192 30.7436999 272.49399 30.7436999 276.342635 30.7436999 279.312455 31.8433126 282.280111 34.7568534L278.046169 39.2115837C276.556338 37.8539494 274.619871 37.0906085 272.604385 37.066473 268.095539 37.066473 264.796701 40.3653112 264.796701 45.0949447 264.796701 50.2618257 268.316328 53.0108575 272.49399 53.0108575 274.639101 53.0108575 276.782047 52.4069364 278.431466 50.7575173L282.940311 55.1559682zM306.382842 31.5142946L312.81601 31.5142946 312.81601 58.6193154 306.493237 58.6193154 306.164219 54.6602766C304.623029 57.8487206 300.391252 59.3899101 297.367317 59.4440249 289.338845 59.4981397 283.401369 54.5498824 283.401369 45.0386653 283.401369 35.6919571 289.613748 30.7999793 297.531826 30.8540941 301.159682 30.8540941 304.623029 32.5597925 306.164219 35.252545L306.382842 31.5142946zM290.10944 45.0386653C290.10944 50.2077109 293.683181 53.2857607 298.135747 53.2857607 308.692462 53.2857607 308.692462 36.8478492 298.135747 36.8478492 293.683181 36.8478492 290.10944 39.8717842 290.10944 45.0386653z"/>
    <polygon fill="#003245" points="247.473 31.404 247.473 58.619 254.184 58.619 254.184 31.404"/>
    <path fill="#003245" d="M254.826591,23.8559682 C254.826591,29.2847649 246.601141,29.2847649 246.601141,23.8559682 C246.601141,18.4271715 254.826591,18.4250069 254.826591,23.8559682 Z"/>
  </g>
</svg>
