<svg xmlns="http://www.w3.org/2000/svg" width="64" height="64" viewBox="0 0 64 64">
  <path fill="#003245" fill-rule="evenodd" d="M27.8882885 10.1075888C29.2686143 8.76555444 30.28605 7.29250563 30.9425215 5.69597217 31.5776994 4.09611109 31.8951352 2.64383859 31.8951352 1.34184237 31.8951352 1.25809721 31.8893576 1.15082405 31.8770804 1.02422508 31.8654159.896815544 31.8626147.789542387 31.8626147.702832228 31.8383009.639223448 31.811558.523737889 31.7788624.349549659 31.7462982.182421962 31.7198178.0636087804 31.6961169 0 27.846292.873052908 25.1101075 2.45258563 23.4925968 4.7350999 21.8512318 7.0384758 20.9964423 9.77781288 20.9311825 12.9573987 22.397624 12.8267895 23.5344182 12.6475245 24.3444757 12.4134604 25.5259801 12.0284588 26.7066966 11.2619964 27.8882885 10.1075888M38.8822802 35.5810949C37.4354772 33.48613 36.7096721 31.1277527 36.7096721 28.5024723 36.7096721 26.1153864 37.3933447 23.9265526 38.7570581 21.9352728 39.4915543 20.8592405 40.6867585 19.6112739 42.3471841 18.1906539 41.253858 16.8394253 40.163051 15.7808889 39.0725799 15.0178372 37.0995504 13.6457488 34.8620326 12.9573987 32.3648758 12.9573987 30.8758774 12.9573987 29.0596641 13.3161396 26.9190701 14.0365621 24.8600541 14.7563077 23.3603703 15.1146255 22.4176465 15.1146255 21.7027996 15.1146255 20.2539184 14.7969059 18.0730392 14.162736 15.8667377 13.5280796 14.0104281 13.2101696 12.4981067 13.2101696 8.88816345 13.2101696 5.90733251 14.7333958 3.5586998 17.7801021 1.18716395 20.867999 0 24.8241137 0 29.6476422 0 34.7655765 1.54313889 40.0856557 4.62954264 45.6055948 7.75562278 51.0855492 10.9159842 53.8230406 14.1046858 53.8230406 15.174437 53.8230406 16.5615574 53.4638977 18.2612606 52.7439618 19.9609638 52.0470434 21.4499413 51.6968918 22.731069 51.6968918 24.0948664 51.6968918 25.6800749 52.0354077 27.4853509 52.7124817 29.3955699 53.3897674 30.8649401 53.7283467 31.8925588 53.7283467 34.5798474 53.7283467 37.2765827 51.6539453 39.9834576 47.507787 41.7459923 44.8649895 43.0390859 42.2201399 43.8558109 39.5774059 41.9879553 39.0066826 40.3312034 37.6748117 38.8822802 35.5810949"/>
</svg>
