<svg xmlns="http://www.w3.org/2000/svg" width="64" height="64" viewBox="0 0 64 64">
  <g fill="none" transform="translate(0 5)">
    <path fill="#003245" d="M43.1562771,15.7885331 C42.5981686,15.5970353 42.0353251,15.4196345 41.4682822,15.2564996 C41.5623183,14.8742818 41.6492778,14.4903566 41.7291162,14.1049211 C43.0068313,7.90064986 42.17142,2.90250673 39.3184905,1.25719564 C36.5832148,-0.320798835 32.1095875,1.32451226 27.5914049,5.25742787 C27.1461964,5.64585479 26.7108701,6.04547163 26.2858427,6.45589587 C26.0012135,6.18298807 25.7115546,5.91537793 25.417015,5.65320318 C20.6818576,1.44753919 15.9355613,-0.324512856 13.0856486,1.32567289 C10.3529255,2.90807776 9.54350481,7.60701011 10.6938197,13.4867689 C10.808268,14.0690365 10.9374891,14.6483012 11.0813577,15.224002 C10.4097799,15.4148098 9.76117586,15.6181524 9.14065093,15.8344941 C3.58934308,17.7704273 0.0439504915,20.8047821 0.0439504915,23.9519502 C0.0439504915,27.2026467 3.84971292,30.4630924 9.63215123,32.4398799 C10.1010216,32.5994273 10.5737946,32.7472603 11.0500298,32.8832411 C10.8953167,33.5034686 10.7579617,34.1278999 10.6381256,34.7558038 C9.54141628,40.533427 10.3979449,45.1209387 13.1234741,46.6935943 C15.938578,48.3173176 20.6632929,46.6483296 25.2640884,42.6255812 C25.6277243,42.3075682 25.9927526,41.9702887 26.3582451,41.6167603 C26.8186082,42.0610638 27.2912632,42.4924446 27.7756595,42.9104001 C32.2321145,46.7462869 36.6333395,48.2952656 39.3565482,46.7184318 C42.1690994,45.0898338 43.0829465,40.1615607 41.8961984,34.1655067 C41.8056955,33.7075215 41.7001088,33.239787 41.5817589,32.7634639 C41.9136028,32.6655066 42.2391811,32.5642996 42.5568695,32.4589142 C48.5681177,30.4668065 52.4790027,27.2460543 52.4790027,23.9519502 C52.4790027,20.7934079 48.8194372,17.738626 43.1562771,15.7885331 Z"/>
    <path fill="#FFF" d="M41.8285513,30.3088942 C41.5420033,30.4037991 41.2477986,30.4954553 40.9480253,30.5843271 C40.2844405,28.4836586 39.3888331,26.2497986 38.2932221,23.9421494 C39.3389482,21.6890299 40.1997522,19.483943 40.8447752,17.3967329 C41.3809796,17.5522005 41.9016384,17.7157895 42.4032714,17.8886601 C47.254865,19.5586602 50.2140819,22.0282741 50.2140819,23.9310114 C50.2140819,25.9578908 47.0179699,28.5892373 41.8287833,30.3088942 L41.8285513,30.3088942 Z M39.6753811,34.5758988 C40.1999843,37.2262727 40.2749276,39.6225616 39.9273577,41.4958297 C39.6150552,43.1790561 38.9872019,44.3012071 38.2108541,44.7506708 C36.5586208,45.7071444 33.0251478,44.4638679 29.2148718,41.1846625 C28.7779732,40.8087559 28.3378262,40.4073247 27.8965191,39.9826894 C29.3738073,38.3667549 30.8501675,36.4881498 32.2910281,34.4021 C34.8256436,34.1772521 37.2201174,33.8094669 39.3916173,33.3075619 C39.4983478,33.7391584 39.5934771,34.1621694 39.6753811,34.5758988 L39.6753811,34.5758988 Z M17.9000552,44.5854575 C16.2858736,45.1555826 15.0002361,45.1718255 14.2231922,44.723754 C12.5693348,43.7700649 11.8820837,40.087572 12.8196872,35.1485763 C12.9311834,34.5648908 13.0588449,33.9844101 13.2025246,33.4078037 C15.3498942,33.8827919 17.7269663,34.2245885 20.2676143,34.430641 C21.7179879,36.471907 23.2370402,38.3481916 24.7679257,39.9912749 C24.4425718,40.3060303 24.1095183,40.6127269 23.7690682,40.911086 C21.7349256,42.6894493 19.6966066,43.950825 17.9002872,44.5854575 L17.9000552,44.5854575 Z M10.3377409,30.296364 C7.78131532,29.4224971 5.67014122,28.2868877 4.22301594,27.047788 C2.922761,25.9339906 2.26613689,24.8283145 2.26613689,23.9310114 C2.26613689,22.022009 5.11235876,19.5867372 9.85931019,17.9315877 C10.455121,17.7247503 11.0568588,17.5354009 11.6637504,17.3637831 C12.3199104,19.4978654 13.1804824,21.729173 14.2190158,23.9855411 C13.1670251,26.2755551 12.2941559,28.542365 11.6319633,30.7015079 C11.1973016,30.5770856 10.7657638,30.4419969 10.3377409,30.296364 L10.3377409,30.296364 Z M12.8728204,13.0394643 C11.8874202,8.00347546 12.5417241,4.20472993 14.1883888,3.25150493 C15.9424801,2.23609289 19.8207387,3.68402961 23.9085138,7.31384919 C24.1697713,7.54589033 24.4321889,7.7888374 24.6950706,8.04013796 C23.1720739,9.67579596 21.6669429,11.5379261 20.2290986,13.5673579 C17.7633938,13.7959185 15.4030274,14.1630076 13.2331516,14.6547027 C13.0994888,14.1193257 12.9793402,13.5806645 12.8728204,13.0392323 L12.8728204,13.0394643 Z M35.4873722,18.6239985 C34.974852,17.7386293 34.4433195,16.8644048 33.8931445,16.0019336 C35.5660279,16.213091 37.1686083,16.4938608 38.6735072,16.8375137 C38.2217591,18.2856825 37.6586402,19.799983 36.9955194,21.3523382 C36.5110137,20.4329425 36.0081977,19.5233145 35.4873722,18.6239985 L35.4873722,18.6239985 Z M26.2651679,9.64075775 C27.2981327,10.7598922 28.3327217,12.0096658 29.3503731,13.3654822 C27.28607,13.2679274 25.2183228,13.2674629 23.1539761,13.3640899 C24.1725556,12.0208037 25.2159614,10.7728865 26.2651679,9.64075775 L26.2651679,9.64075775 Z M16.9837977,18.6393132 C16.4694931,19.5314771 15.9760786,20.4355234 15.5039573,21.3507139 C14.8517416,19.8036957 14.2937271,18.282666 13.8380346,16.8138456 C15.3338847,16.4790102 16.9290404,16.2054337 18.5910186,15.9977569 C18.0346778,16.8655732 17.4987898,17.7463347 16.9837977,18.6393132 L16.9837977,18.6393132 Z M18.6388153,32.0241424 C16.9218477,31.8324764 15.3025616,31.5728223 13.8071756,31.2472686 C14.2700608,29.7524596 14.8403725,28.1987121 15.5065095,26.6185119 C15.9806212,27.5343808 16.4762039,28.4389725 16.9928466,29.331537 C17.5200279,30.2420264 18.0688401,31.1398167 18.6388153,32.0241424 L18.6388153,32.0241424 Z M26.3271179,38.3795172 C25.2656143,37.2339301 24.2068949,35.9669854 23.1727699,34.6042078 C24.1764999,34.6436548 25.1999519,34.6636103 26.2401094,34.6636103 C27.3088057,34.6636103 28.3652049,34.6397101 29.4048984,34.5933019 C28.3839987,35.9809079 27.3531221,37.2497089 26.3271179,38.3795172 Z M37.0168655,26.5379937 C37.7175739,28.1353649 38.3083036,29.6807589 38.7774534,31.1502754 C37.257241,31.4971769 35.6161448,31.7765545 33.8868799,31.9839992 C34.4410316,31.1054251 34.9776514,30.2159128 35.4964211,29.3159902 C36.023782,28.4013874 36.5307223,27.4751592 37.0168655,26.5379937 L37.0168655,26.5379937 Z M33.5562477,28.1970878 C32.7620805,29.5767943 31.9232621,30.9303093 31.0411221,32.2554874 C29.4856423,32.3666351 27.8781893,32.4239492 26.2401094,32.4239492 C24.6087581,32.4239492 23.0217232,32.3731322 21.49339,32.2740507 C20.5883709,30.9519581 19.7336844,29.5961005 18.9311639,28.209386 C18.1323944,26.8300289 17.3862907,25.4208332 16.6944655,23.984845 C17.384531,22.5484266 18.1283801,21.138476 18.9244352,19.7579836 L18.9244352,19.7584476 C19.7202405,18.3776612 20.5681984,17.0276009 21.4664754,15.711186 C23.0256676,15.5933091 24.6243037,15.5315862 26.2403414,15.5315862 C27.8635719,15.5315862 29.4642962,15.5937732 31.0230243,15.7125783 C31.9122154,17.0269674 32.7547499,18.3723283 33.549055,19.7461495 C34.3478474,21.1235706 35.1016236,22.5266145 35.8091876,23.9530553 C35.108902,25.3940293 34.3575231,26.809604 33.5564797,28.1970878 L33.5562477,28.1970878 Z M38.1765147,3.18490912 C39.9319981,4.19753666 40.6148408,8.28076462 39.5118051,13.635578 C39.439507,13.9844118 39.3609158,14.3319114 39.2760701,14.6779068 C37.1010897,14.1760019 34.7390991,13.8024156 32.2662017,13.5703745 C30.8255731,11.5188987 29.3329714,9.65352001 27.8345691,8.03897775 C28.2272125,7.66041375 28.6291997,7.29166395 29.0401588,6.93306967 C32.9107606,3.56429638 36.5282258,2.23423656 38.1765147,3.18490912 L38.1765147,3.18490912 Z"/>
    <path fill="#003245" d="M26.2614766,19.2527385 C28.845972,19.2527385 30.9408883,21.3478348 30.9408883,23.9320343 C30.9408883,26.5164657 28.845972,28.611562 26.2614766,28.611562 C23.6772131,28.611562 21.5820648,26.5164657 21.5820648,23.9320343 C21.5820648,21.3478348 23.6772131,19.2527385 26.2614766,19.2527385"/>
  </g>
</svg>
