<?xml version="1.0" encoding="UTF-8"?>
<svg width="64px" height="64px" viewBox="0 0 64 64" version="1.1" xmlns="http://www.w3.org/2000/svg" xmlns:xlink="http://www.w3.org/1999/xlink">
    <title>icn_notification_info</title>
    <g id="Symbols" stroke="none" stroke-width="1" fill="none" fill-rule="evenodd">
        <g id="nest1" transform="translate(-1152.000000, -772.000000)" fill="#019DF4" fill-rule="nonzero">
            <g id="Group-55" transform="translate(913.000000, 263.000000)">
                <g id="Group-18" transform="translate(0.000000, 304.000000)">
                    <g id="Group-24" transform="translate(72.000000, 32.000000)">
                        <g id="-----ICON-LAYERS-----" transform="translate(167.000000, 173.000000)">
                            <path d="M31.9912,0.0001 C53.2302,0.0001 64.0002,10.7691 64.0002,32.0091 C64.0002,53.2361 53.2302,64.0001 31.9912,64.0001 C10.7632,64.0001 0.0002,53.2361 0.0002,32.0091 C0.0002,10.7691 10.7632,0.0001 31.9912,0.0001 Z M31.9912,2.0001 C11.8102,2.0001 2.0002,11.8161 2.0002,32.0091 C2.0002,52.1901 11.8102,62.0001 31.9912,62.0001 C52.1832,62.0001 62.0002,52.1901 62.0002,32.0091 C62.0002,11.8161 52.1832,2.0001 31.9912,2.0001 Z M32,27.0001 C32.5522847,27.0001 33,27.4478153 33,28.0001 L33,28.0001 L33,44.0001 C33,44.5523847 32.5522847,45.0001 32,45.0001 C31.4477153,45.0001 31,44.5523847 31,44.0001 L31,44.0001 L31,28.0001 C31,27.4478153 31.4477153,27.0001 32,27.0001 Z M32,19.5001 C32.828,19.5001 33.5,20.1711 33.5,21.0001 C33.5,21.8291 32.828,22.5001 32,22.5001 C31.172,22.5001 30.5,21.8291 30.5,21.0001 C30.5,20.1711 31.172,19.5001 32,19.5001 Z" id="Combined-Shape"></path>
                        </g>
                    </g>
                </g>
            </g>
        </g>
    </g>
</svg>