<svg xmlns="http://www.w3.org/2000/svg" xmlns:xlink="http://www.w3.org/1999/xlink" width="783" height="402" viewBox="0 0 783 402">
  <defs>
    <rect id="levels-b" width="81" height="180" x="0" y="0"/>
    <filter id="levels-a" width="108.6%" height="103.9%" x="-4.3%" y="-1.4%" filterUnits="objectBoundingBox">
      <feOffset dy="1" in="SourceAlpha" result="shadowOffsetOuter1"/>
      <feGaussianBlur in="shadowOffsetOuter1" result="shadowBlurOuter1" stdDeviation="1"/>
      <feColorMatrix in="shadowBlurOuter1" values="0 0 0 0 0   0 0 0 0 0   0 0 0 0 0  0 0 0 0.176710009 0"/>
    </filter>
    <rect id="levels-d" width="81" height="180" x="0" y="0"/>
    <filter id="levels-c" width="108.6%" height="103.9%" x="-4.3%" y="-1.4%" filterUnits="objectBoundingBox">
      <feOffset dy="1" in="SourceAlpha" result="shadowOffsetOuter1"/>
      <feGaussianBlur in="shadowOffsetOuter1" result="shadowBlurOuter1" stdDeviation="1"/>
      <feColorMatrix in="shadowBlurOuter1" values="0 0 0 0 0   0 0 0 0 0   0 0 0 0 0  0 0 0 0.176710009 0"/>
    </filter>
    <rect id="levels-f" width="81" height="180" x="0" y="0"/>
    <filter id="levels-e" width="108.6%" height="103.9%" x="-4.3%" y="-1.4%" filterUnits="objectBoundingBox">
      <feOffset dy="1" in="SourceAlpha" result="shadowOffsetOuter1"/>
      <feGaussianBlur in="shadowOffsetOuter1" result="shadowBlurOuter1" stdDeviation="1"/>
      <feColorMatrix in="shadowBlurOuter1" values="0 0 0 0 0   0 0 0 0 0   0 0 0 0 0  0 0 0 0.176710009 0"/>
    </filter>
  </defs>
  <g fill="none" fill-rule="evenodd">
    <rect width="783" height="402" fill="#FFF"/>
    <g transform="translate(48 48)">
      <text font-family="SFProText-Bold, SF Pro Text" font-size="14" font-weight="bold">
        <tspan x="70.871" y="246" fill="#404040">Nivel 1</tspan> <tspan x="63.04" y="266" fill="#757575" font-family="SFProText-Regular, SF Pro Text" font-weight="normal">Template</tspan> <tspan x=".389" y="286" fill="#A4A4A4" font-family="SFProText-Regular, SF Pro Text" font-weight="normal">(Agrupación de organismos)</tspan>
      </text>
      <g transform="translate(54)">
        <use fill="#000" filter="url(#levels-a)" xlink:href="#levels-b"/>
        <use fill="#FFF" xlink:href="#levels-b"/>
        <rect width="71" height="59" x="5" y="7" fill="#A0A3F6" rx="3"/>
        <rect width="59" height="9" x="11" y="13" fill="#0076B7" rx="2"/>
        <rect width="59" height="9" x="11" y="25" fill="#0076B7" rx="2"/>
        <rect width="59" height="9" x="11" y="37" fill="#0076B7" rx="2"/>
        <rect width="71" height="42" x="5" y="59" fill="#A0A3F6" rx="3"/>
        <rect width="59" height="9" x="11" y="64" fill="#0076B7" rx="2"/>
        <rect width="59" height="9" x="11" y="76" fill="#0076B7" rx="2"/>
        <rect width="71" height="31" x="5" y="98" fill="#A0A3F6" rx="3"/>
        <rect width="59" height="9" x="11" y="104" fill="#0076B7" rx="2"/>
        <rect width="71" height="45" x="5" y="126" fill="#A0A3F6" rx="3"/>
        <rect width="59" height="9" x="11" y="132" fill="#0076B7" rx="2"/>
        <rect width="59" height="9" x="11" y="144" fill="#0076B7" rx="2"/>
        <rect width="59" height="9" x="11" y="156" fill="#0076B7" rx="2"/>
      </g>
      <g transform="translate(250)">
        <text font-family="SFProText-Bold, SF Pro Text" font-size="14" font-weight="bold">
          <tspan x="69.958" y="246" fill="#404040">Nivel 2</tspan> <tspan x="58.583" y="266" fill="#757575" font-family="SFProText-Regular, SF Pro Text" font-weight="normal">Organisms</tspan> <tspan x="5.396" y="286" fill="#A4A4A4" font-family="SFProText-Regular, SF Pro Text" font-weight="normal">(Agrupación de moléculas)</tspan>
        </text>
        <g transform="translate(54)">
          <use fill="#000" filter="url(#levels-c)" xlink:href="#levels-d"/>
          <use fill="#FFF" xlink:href="#levels-d"/>
          <rect width="71" height="45" x="5" y="7" fill="#A0A3F6" rx="3"/>
          <rect width="59" height="9" x="11" y="13" fill="#0076B7" rx="2"/>
          <rect width="59" height="9" x="11" y="25" fill="#0076B7" rx="2"/>
          <rect width="59" height="9" x="11" y="37" fill="#0076B7" rx="2"/>
          <rect width="71" height="32" x="5" y="59" fill="#A0A3F6" rx="3"/>
          <rect width="59" height="9" x="11" y="64" fill="#0076B7" rx="2"/>
          <rect width="59" height="9" x="11" y="76" fill="#0076B7" rx="2"/>
          <rect width="71" height="21" x="5" y="98" fill="#A0A3F6" rx="3"/>
          <rect width="59" height="9" x="11" y="104" fill="#0076B7" rx="2"/>
          <rect width="71" height="45" x="5" y="126" fill="#A0A3F6" rx="3"/>
          <rect width="59" height="9" x="11" y="132" fill="#0076B7" rx="2"/>
          <rect width="59" height="9" x="11" y="144" fill="#0076B7" rx="2"/>
          <rect width="59" height="9" x="11" y="156" fill="#0076B7" rx="2"/>
        </g>
      </g>
      <g transform="translate(500)">
        <text font-family="SFProText-Bold, SF Pro Text" font-size="14" font-weight="bold">
          <tspan x="69.78" y="246" fill="#404040">Nivel 3</tspan> <tspan x="30.47" y="266" fill="#757575" font-family="SFProText-Regular, SF Pro Text" font-weight="normal">Molecules &amp; Atoms</tspan> <tspan x="42.642" y="286" fill="#A4A4A4" font-family="SFProText-Regular, SF Pro Text" font-weight="normal">(Componentes)</tspan>
        </text>
        <g transform="translate(54)">
          <use fill="#000" filter="url(#levels-e)" xlink:href="#levels-f"/>
          <use fill="#FFF" xlink:href="#levels-f"/>
          <rect width="71" height="45" x="5" y="7" fill="#A0A3F6" opacity=".2" rx="3"/>
          <rect width="59" height="9" x="11" y="13" fill="#44F2FF" opacity=".2" rx="2"/>
          <rect width="59" height="9" x="11" y="25" fill="#44F2FF" opacity=".2" rx="2"/>
          <rect width="59" height="9" x="11" y="37" fill="#44F2FF" opacity=".2" rx="2"/>
          <rect width="71" height="32" x="5" y="59" fill="#A0A3F6" opacity=".2" rx="3"/>
          <rect width="59" height="9" x="11" y="64" fill="#0076B7" rx="2"/>
          <rect width="59" height="9" x="11" y="76" fill="#0076B7" rx="2"/>
          <rect width="71" height="21" x="5" y="98" fill="#A0A3F6" opacity=".2" rx="3"/>
          <rect width="59" height="9" x="11" y="104" fill="#44F2FF" opacity=".2" rx="2"/>
          <rect width="71" height="45" x="5" y="126" fill="#A0A3F6" opacity=".2" rx="3"/>
          <rect width="59" height="9" x="11" y="132" fill="#44F2FF" opacity=".2" rx="2"/>
          <rect width="59" height="9" x="11" y="144" fill="#44F2FF" opacity=".2" rx="2"/>
          <rect width="59" height="9" x="11" y="156" fill="#44F2FF" opacity=".2" rx="2"/>
        </g>
      </g>
    </g>
  </g>
</svg>
